inDegrees=no
num_controls=7
num_derivatives=13
num_iterations=156
num_multipliers=7
num_parameters=0
num_slacks=7
num_states=26
objective=0.494314
objective_accelerations=0.011211
objective_balance=0.003957
objective_effort=0.017202
objective_height=0.361005
objective_ligament=0.100939
solver_duration=1950.688926
status=Solve_Succeeded
success=true
DataType=double
version=3
OpenSimVersion=4.5
endheader
time	/jointset/ground_pelvis/pelvis_tilt/value	/jointset/ground_pelvis/pelvis_tx/value	/jointset/ground_pelvis/pelvis_ty/value	/jointset/hip_l/hip_flexion_l/value	/jointset/hip_l/hip_adduction_l/value	/jointset/hip_l/hip_rotation_l/value	/jointset/back/lumbar_extension/value	/jointset/patellofemoral_l/patellar_flexion_l/value	/jointset/knee_l/knee_flexion_l/value	/jointset/knee_l/knee_adduction_l/value	/jointset/knee_l/knee_rotation_l/value	/jointset/ankle_l/ankle_angle_l/value	/jointset/subtalar_l/subtalar_angle_l/value	/jointset/ground_pelvis/pelvis_tilt/speed	/jointset/ground_pelvis/pelvis_tx/speed	/jointset/ground_pelvis/pelvis_ty/speed	/jointset/hip_l/hip_flexion_l/speed	/jointset/hip_l/hip_adduction_l/speed	/jointset/hip_l/hip_rotation_l/speed	/jointset/back/lumbar_extension/speed	/jointset/patellofemoral_l/patellar_flexion_l/speed	/jointset/knee_l/knee_flexion_l/speed	/jointset/knee_l/knee_adduction_l/speed	/jointset/knee_l/knee_rotation_l/speed	/jointset/ankle_l/ankle_angle_l/speed	/jointset/subtalar_l/subtalar_angle_l/speed	/forceset/tau_hip_flexion_l	/forceset/tau_hip_adduction_l	/forceset/tau_hip_rotation_l	/forceset/tau_knee_flexion_l	/forceset/tau_ankle_angle_l	/forceset/tau_subtalar_angle_l	/forceset/tau_lumbar_extension	lambda_cid13_p0	lambda_cid13_p1	lambda_cid13_p2	lambda_cid13_p3	lambda_cid13_p4	lambda_cid13_p5	lambda_cid14_p0	/jointset/ground_pelvis/pelvis_tilt/accel	/jointset/ground_pelvis/pelvis_tx/accel	/jointset/ground_pelvis/pelvis_ty/accel	/jointset/hip_l/hip_flexion_l/accel	/jointset/hip_l/hip_adduction_l/accel	/jointset/hip_l/hip_rotation_l/accel	/jointset/back/lumbar_extension/accel	/jointset/patellofemoral_l/patellar_flexion_l/accel	/jointset/knee_l/knee_flexion_l/accel	/jointset/knee_l/knee_adduction_l/accel	/jointset/knee_l/knee_rotation_l/accel	/jointset/ankle_l/ankle_angle_l/accel	/jointset/subtalar_l/subtalar_angle_l/accel	gamma_cid13_p0	gamma_cid13_p1	gamma_cid13_p2	gamma_cid13_p3	gamma_cid13_p4	gamma_cid13_p5	gamma_cid14_p0
0.5	-0.04052861474479621	-0.03119111810031424	0.8901072703689481	0.5580564825543981	-0.2667540364773556	-0.2616754697481182	-0.7664183330783687	0.4470363500852352	0.4470363500854162	-0.05321676472650604	-0.17448304739174	-0.0170965859488153	0.02399806598913406	-0.0775193050952417	-0.1486909159273052	-0.09691086780274909	0.5745016954084791	-0.06070926371151516	0.1579418418283969	-0.8463551770381021	0.4844516459266885	0.4844516459267211	0.00459591187249607	0.0001070511427280779	-0.009093149619364282	-0.06795154458643117	-0.2308748228589821	0.0430733756029715	-0.0075825742061398	-0.1169457892990603	0.1033149494260936	0.03501407974386484	0.301819782707766	-12.42047252041241	-14.7667083551138	3.881500957731175	-1.43597121249742	-712.2451743775583	-70.68110436510297	-23.58908654266189	0.007986619919494179	0.3811821720397303	0.07526561931121034	-0.8873280281999224	-0.01129133927665551	-0.145684955187595	1.454361892910011	-0.6799385547794572	-0.679938554779462	-0.3000582945087621	-0.001927615012818129	0.1428255412009831	0.0438919108474737	-5.431741930318858e-09	8.09948053065691e-09	2.679694824666623e-08	-1.308824541119611e-09	6.951347648385492e-09	1.908904805796308e-09	-4.103377625814791e-09
0.51	-0.04130337262844409	-0.03265888360502293	0.8891421008498853	0.5637565426649815	-0.2673616062807395	-0.2601034649291893	-0.7748080506190446	0.4518461938952531	0.4518461938953004	-0.05318579016670441	-0.1744820277253858	-0.01718049419178823	0.02332079098597894	-0.07741478338830743	-0.1448530938828109	-0.09610243640553803	0.5654312131918093	-0.06078857589627171	0.1564316058944469	-0.8314887418653155	0.4774414179243819	0.4774414179243923	0.001617811045776969	9.480379978517402e-05	-0.007698740078827902	-0.06749049525266893	-0.2359202245456938	0.04424761402196047	-0.007600738160775279	-0.1156246120650974	0.1017569093767625	0.03586840258687366	0.3067427921977159	-12.98576036576523	-15.02902208229496	3.91219449344973	-1.294015810858593	-713.9430183266053	-70.6620614410833	-23.5556503559588	0.01430657761945614	0.386445589598438	0.0867234753276563	-0.9287767825310382	-0.00383701535889601	-0.1578236480085858	1.517722714214145	-0.7229188480480728	-0.7229188480514699	-0.293861069909984	-0.001180419479127103	0.1362123920584869	0.04915095157885446	-5.281409058075213e-09	1.077413032523392e-08	2.651816493749827e-08	-1.660921765768069e-09	9.163558417621933e-09	1.872892180331939e-09	-3.851239213966124e-09
0.52	-0.04207656096871261	-0.03408799821549816	0.888185633959875	0.5693635242605695	-0.267969486377427	-0.2585473886167037	-0.7830461161310426	0.4565836646402275	0.4565836646401461	-0.05318403163379991	-0.1744811919575684	-0.01725076559303776	0.02264851437754901	-0.07720539641981256	-0.1409607370806112	-0.09517034199225333	0.5558859924099112	-0.06077132237237438	0.1547561405401013	-0.8160247713024761	0.4699770329184026	0.4699770329183905	-0.001247293507200327	7.027143507827521e-05	-0.006365781275149732	-0.0669518656413749	-0.2409656262324266	0.04542185244094462	-0.007618902115403372	-0.1143034348311369	0.1001988693274327	0.03672272542987796	0.3116658016876495	-13.55520545605647	-15.29103388883475	3.943326512823215	-1.162074530028894	-715.7099495109029	-70.65421489090605	-23.5199801134492	0.0289596722315721	0.3920891235808761	0.0999982225259462	-0.9822757412456313	0.008021802454112345	-0.1787308392666954	1.573868970920583	-0.7707699555139721	-0.7707699555140347	-0.277459039760418	-0.004384619365609453	0.1305353938294277	0.05940796635385112	-5.094397084765898e-09	1.319710445094598e-08	2.606516178303605e-08	-1.976151438091986e-09	1.116354526800111e-08	1.772690044513516e-09	-3.573712340989706e-09
0.53	-0.04284719106951657	-0.03547797367036483	0.8872390946165721	0.5748728047947509	-0.2685766920139802	-0.2570088606835589	-0.7911266602378891	0.4612441911262012	0.461244191126123	-0.05321033726023311	-0.1744806102261142	-0.01730810574194172	0.02198199855468594	-0.07690789645684913	-0.1370307312616709	-0.09411755496136318	0.5458990223057303	-0.06065280709524989	0.1529219647427666	-0.7999963150182159	0.4620457108831688	0.4620457108832007	-0.003995222064434433	4.649766252100977e-05	-0.005123249468287063	-0.06634128381098033	-0.2457383841416705	0.04650602038332911	-0.007633682962469926	-0.1130836484426486	0.09862331217611056	0.03754943094412014	0.3163088957575719	-14.1260553407116	-15.5410640832063	3.972843632647121	-0.9544775906934806	-717.3349251629496	-70.65144952064078	-23.48221827565248	0.03205247084855565	0.3939992775398076	0.110917142252114	-1.017572992992408	0.01631115498833546	-0.1898857403669501	1.630494214466354	-0.8166956508376745	-0.8166956508311047	-0.2706641129532138	-0.001306122523646401	0.1179619375284006	0.06338027849150085	-4.873970267833319e-09	1.53050340653504e-08	2.54435445829488e-08	-2.323220288553706e-09	1.307741301287808e-08	1.656749364964695e-09	-3.309505524845546e-09
0.54	-0.04361446470818429	-0.03682854047374457	0.8863036827833544	0.5802800825582899	-0.2691822035448322	-0.2554894994664698	-0.7990442877304358	0.4658229279271581	0.4658229279270896	-0.05326356304208608	-0.1744802527056497	-0.01735365060009057	0.02132188794754857	-0.07653410399309528	-0.1330790067832268	-0.09294483997520113	0.5354854382820184	-0.06043250123225245	0.1509227973294276	-0.7834414484424441	0.4536190959155515	0.4536190959156275	-0.006631324591599213	2.542923704933192e-05	-0.004006723124874968	-0.06567082249621463	-0.2505111420509405	0.04759018832570695	-0.007648463809520654	-0.1118638620541639	0.09704775502478923	0.03837613645835564	0.3209519898274747	-14.70164104236421	-15.7907610623085	4.00287421716753	-0.7550875323118195	-719.0373500780292	-70.66085887047059	-23.44251895827647	0.04421817238962501	0.3964328554816991	0.1239838135803332	-1.067598525151866	0.02837991962869795	-0.2117291624675428	1.679151029222917	-0.8698285419906358	-0.8698285419906601	-0.2550938337465667	-0.003843549948482137	0.1053343011394001	0.07138386322809519	-4.616573836679256e-09	1.706440379490381e-08	2.463537567280834e-08	-2.705515463763635e-09	1.489600004528452e-08	1.523395828522669e-09	-3.060035792856224e-09
